HIERARCHY
ROOT hip
{
  OFFSET 0 0 0
  CHANNELS 6 Xposition Yposition Zposition Zrotation Yrotation Xrotation
  JOINT abdomen
  {
    OFFSET 0 20.6881 -0.73152
    CHANNELS 3 Zrotation Xrotation Yrotation
    JOINT chest
    {
      OFFSET 0 11.7043 -0.48768
      CHANNELS 3 Zrotation Xrotation Yrotation
      JOINT neck
      {
        OFFSET 0 22.1894 -2.19456
        CHANNELS 3 Zrotation Xrotation Yrotation
        JOINT head
        {
          OFFSET -0.24384 7.07133 1.2192
          CHANNELS 3 Zrotation Xrotation Yrotation
          JOINT leftEye
          {
            OFFSET 4.14528 8.04674 8.04672
            CHANNELS 3 Zrotation Xrotation Yrotation
            End Site
            {
              OFFSET 1 0 0
            }
          }
          JOINT rightEye
          {
            OFFSET -3.6576 8.04674 8.04672
            CHANNELS 3 Zrotation Xrotation Yrotation
            End Site
            {
              OFFSET 1 0 0
            }
          }
        }
      }
      JOINT rCollar
      {
        OFFSET -2.68224 19.2634 -4.8768
        CHANNELS 3 Zrotation Xrotation Yrotation
        JOINT rShldr
        {
          OFFSET -8.77824 -1.95073 1.46304
          CHANNELS 3 Zrotation Xrotation Yrotation
          JOINT rForeArm
          {
            OFFSET -28.1742 -1.7115 0.48768
            CHANNELS 3 Zrotation Xrotation Yrotation
            JOINT rHand
            {
              OFFSET -22.5879 0.773209 7.07136
              CHANNELS 3 Zrotation Xrotation Yrotation
              JOINT rThumb1
              {
                OFFSET -1.2192 -0.487915 3.41376
                CHANNELS 3 Zrotation Xrotation Yrotation
                JOINT rThumb2
                {
                  OFFSET -3.37035 -0.52449 3.41376
                  CHANNELS 3 Zrotation Xrotation Yrotation
                  End Site
                  {
                    OFFSET -1.78271 -1.18214 1.43049
                  }
                }
              }
              JOINT rIndex1
              {
                OFFSET -7.75947 0.938293 5.60832
                CHANNELS 3 Zrotation Xrotation Yrotation
                JOINT rIndex2
                {
                  OFFSET -2.54057 -0.884171 1.56538
                  CHANNELS 3 Zrotation Xrotation Yrotation
                  End Site
                  {
                    OFFSET -1.62519 -0.234802 1.16502
                  }
                }
              }
              JOINT rMid1
              {
                OFFSET -8.24714 1.18213 3.41376
                CHANNELS 3 Zrotation Xrotation Yrotation
                JOINT rMid2
                {
                  OFFSET -3.10165 -0.590103 1.0647
                  CHANNELS 3 Zrotation Xrotation Yrotation
                  End Site
                  {
                    OFFSET -2.48547 -0.328903 0.83742
                  }
                }
              }
              JOINT rRing1
              {
                OFFSET -8.82822 0.546677 1.51678
                CHANNELS 3 Zrotation Xrotation Yrotation
                JOINT rRing2
                {
                  OFFSET -2.60934 -0.819778 -0.0198488
                  CHANNELS 3 Zrotation Xrotation Yrotation
                  End Site
                  {
                    OFFSET -2.33842 -0.294052 0.168128
                  }
                }
              }
              JOINT rPinky1
              {
                OFFSET -8.27202 -0.0477905 -0.4584
                CHANNELS 3 Zrotation Xrotation Yrotation
                JOINT rPinky2
                {
                  OFFSET -1.82734 -0.647385 -0.700984
                  CHANNELS 3 Zrotation Xrotation Yrotation
                  End Site
                  {
                    OFFSET -1.69225 -0.51767 -0.607171
                  }
                }
              }
            }
          }
        }
      }
      JOINT lCollar
      {
        OFFSET 2.68224 19.2634 -4.8768
        CHANNELS 3 Zrotation Xrotation Yrotation
        JOINT lShldr
        {
          OFFSET 8.77824 -1.95073 1.46304
          CHANNELS 3 Zrotation Xrotation Yrotation
          JOINT lForeArm
          {
            OFFSET 28.1742 -1.7115 0.48768
            CHANNELS 3 Zrotation Xrotation Yrotation
            JOINT lHand
            {
              OFFSET 22.5879 0.773209 7.07136
              CHANNELS 3 Zrotation Xrotation Yrotation
              JOINT lThumb1
              {
                OFFSET 1.2192 -0.487915 3.41376
                CHANNELS 3 Zrotation Xrotation Yrotation
                JOINT lThumb2
                {
                  OFFSET 3.37035 -0.52449 3.41376
                  CHANNELS 3 Zrotation Xrotation Yrotation
                  End Site
                  {
                    OFFSET 1.78271 -1.18214 1.43049
                  }
                }
              }
              JOINT lIndex1
              {
                OFFSET 7.75947 0.938293 5.60832
                CHANNELS 3 Zrotation Xrotation Yrotation
                JOINT lIndex2
                {
                  OFFSET 2.54057 -0.884171 1.56538
                  CHANNELS 3 Zrotation Xrotation Yrotation
                  End Site
                  {
                    OFFSET 1.62519 -0.234802 1.16502
                  }
                }
              }
              JOINT lMid1
              {
                OFFSET 8.24714 1.18213 3.41376
                CHANNELS 3 Zrotation Xrotation Yrotation
                JOINT lMid2
                {
                  OFFSET 3.10165 -0.590103 1.0647
                  CHANNELS 3 Zrotation Xrotation Yrotation
                  End Site
                  {
                    OFFSET 2.48547 -0.328903 0.83742
                  }
                }
              }
              JOINT lRing1
              {
                OFFSET 8.82822 0.546677 1.51678
                CHANNELS 3 Zrotation Xrotation Yrotation
                JOINT lRing2
                {
                  OFFSET 2.60934 -0.819778 -0.0198488
                  CHANNELS 3 Zrotation Xrotation Yrotation
                  End Site
                  {
                    OFFSET 2.33842 -0.294052 0.168128
                  }
                }
              }
              JOINT lPinky1
              {
                OFFSET 8.27202 -0.0477905 -0.4584
                CHANNELS 3 Zrotation Xrotation Yrotation
                JOINT lPinky2
                {
                  OFFSET 1.82734 -0.647385 -0.700984
                  CHANNELS 3 Zrotation Xrotation Yrotation
                  End Site
                  {
                    OFFSET 1.69225 -0.51767 -0.607171
                  }
                }
              }
            }
          }
        }
      }
    }
  }
  JOINT rButtock
  {
    OFFSET -8.77824 4.35084 1.2192
    CHANNELS 3 Zrotation Xrotation Yrotation
    JOINT rThigh
    {
      OFFSET 0 -1.70687 -2.19456
      CHANNELS 3 Zrotation Xrotation Yrotation
      JOINT rShin
      {
        OFFSET 0 -36.8199 0.73152
        CHANNELS 3 Zrotation Xrotation Yrotation
        JOINT rFoot
        {
          OFFSET 0.73152 -45.1104 -5.12064
          CHANNELS 3 Zrotation Xrotation Yrotation
          End Site
          {
            OFFSET -1.1221 -3.69964 12.103
          }
        }
      }
    }
  }
  JOINT lButtock
  {
    OFFSET 8.77824 4.35084 1.2192
    CHANNELS 3 Zrotation Xrotation Yrotation
    JOINT lThigh
    {
      OFFSET 0 -1.70687 -2.19456
      CHANNELS 3 Zrotation Xrotation Yrotation
      JOINT lShin
      {
        OFFSET 0 -36.8199 0.73152
        CHANNELS 3 Zrotation Xrotation Yrotation
        JOINT lFoot
        {
          OFFSET -0.73152 -45.1104 -5.12064
          CHANNELS 3 Zrotation Xrotation Yrotation
          End Site
          {
            OFFSET 1.1221 -3.69964 12.103
          }
        }
      }
    }
  }
}
MOTION
Frames:	7
Frame Time:	0.03333
-4.8652 57.5281 -32.4703 -15.753365 -42.709415 15.393409 0.068776 17.710165 1.547261 8.48626 -12.165246 6.520376 5.269716 35.747664 146.257726 -28.017531 46.465391 -124.570907 -0.005758 -0.000445 8.836103 -15.493367 3.336105 -24.16605 -146.268442 30.274844 142.74268 -126.527285 36.455024 90.31628 163.055527 34.341445 -54.947599 -11.466303 -1.564153 0.534247 -31.018995 61.177023 -0.349088 -164.471525 -14.225716 100.561692 -157.897501 -57.932035 143.093745 171.329536 -55.872857 70.579497 -14.453965 13.254772 -26.371144 32.329661 5.749623 35.582182 -10.063478 31.598434 4.041669 36.41939 -52.602582 37.644101 -15.159159 -29.198006 -7.385592 -34.193517 72.619113 77.694369 0.932666 16.002762 -4.299759 -86.542891 -24.221674 -62.963949 16.141669 9.235469 -72.511876 -2.088291 10.221212 1.937474 179.379951 -27.083292 -97.394357 -21.866091 -61.391234 -46.047043 0.853553 -6.789219 -20.344253 135.862216 -47.00633 -163.689526 159.671136 -75.530678 -169.391588 -34.440294 -59.484187 18.171203 -1.193612 -41.79628 -6.431126 -86.749816 64.789412 91.051958 69.113738 -64.854989 43.720119 137.621202 17.48437 88.402111 -82.689375 46.284598 -28.04315 87.412963 -10.758125 -147.654956 19.516937 -82.010941 76.130144 42.344187 -28.235653 115.937063 -110.266711 34.398567 -18.358478 172.508948 -20.011555 -30.427575 -85.515339 14.258694 3.615841 17.267259 15.400709 80.118279
-5.2501 57.1746 -33.391 -15.834897 -43.003725 15.31047 -0.014858 13.830895 -179.961497 -8.916437 7.829765 -173.730936 -10.878543 21.90894 -31.040642 28.377588 -27.686567 48.957719 5.925915 0.71018 13.655928 -15.390414 3.314283 -24.170321 -18.239109 29.362584 19.422041 50.390545 35.068198 25.870238 -157.14787 19.922707 24.209535 -172.861601 -2.528141 144.948044 -166.982046 -22.00036 120.795806 15.446098 -48.608117 -14.43667 10.582699 -32.869705 -20.582981 -174.771862 4.430905 86.519162 -35.704865 -53.943562 -49.787022 -51.702274 76.799881 87.022549 -20.05781 -40.453767 -21.251834 22.397887 35.759694 25.598728 -147.189444 25.951296 -152.740347 76.933925 62.119713 -43.138884 16.236634 51.411165 -19.932921 64.234456 17.676954 -71.274665 -16.442999 13.256189 106.088632 -167.551257 -11.356682 -141.147639 -7.473022 -3.317794 10.648238 14.423316 45.360266 4.787175 143.210136 -6.61907 -95.070154 -20.659866 3.822871 -34.84419 154.450613 20.138134 -147.796508 -6.772747 72.64646 29.75206 140.118566 22.208533 -149.946628 0.091114 27.001189 -41.682833 22.954485 -6.733738 -13.435747 102.326066 65.533253 150.190015 40.438707 18.173351 7.706528 -74.606292 -23.532779 -160.720114 -74.664877 -32.07073 33.739774 105.780104 24.354456 6.394348 -169.008311 45.904317 -13.273323 -156.04245 -28.895317 150.212577 100.996744 -56.72723 89.346386 61.816678 35.822529 175.325676
-5.7962 57.2091 -34.2327 -15.508973 -42.30267 14.251434 -0.426737 13.569959 -174.838882 -9.114627 6.808483 -179.539106 7.551112 22.551507 79.398313 -43.318816 2.332103 -64.12223 10.536822 0.413527 4.482295 -11.595375 3.440974 -32.95953 -150.073701 21.480392 145.82401 -53.804352 7.874366 40.356388 6.332684 14.481093 -144.776022 -166.119314 13.941088 140.459443 9.452747 -12.961276 -25.983811 -41.132578 -1.894894 18.975998 -69.17395 57.705643 63.735234 -20.651049 -8.22672 -47.387646 -172.316821 30.55606 162.303342 159.301266 -61.015719 164.693448 -20.621344 -40.094848 -24.56182 81.487701 -53.683151 39.619704 -137.111237 16.295476 -144.233075 38.512384 21.654331 -23.465904 70.994037 73.298707 -80.68856 -52.026812 -56.041413 -95.261513 64.605414 -30.533185 -18.970231 -13.825901 -19.178294 0.808897 -15.125083 -20.044567 10.252918 13.116108 -22.506379 59.480072 -31.882247 -32.440311 -28.536602 -72.974872 89.369325 117.832241 103.105776 61.245198 -96.941151 71.581957 80.399967 -35.647867 119.926658 28.557262 -129.792742 -51.26171 -9.012732 -31.822887 22.111425 -18.492517 -9.925227 139.029316 71.669995 115.26318 167.219271 55.90793 13.721972 158.778316 31.33987 72.823741 72.963612 13.877142 9.661365 -22.208415 34.215556 -99.812687 89.218635 42.879034 6.584687 -120.813156 -65.995046 -11.253956 75.787013 61.148885 -167.025838 40.916117 74.831768 44.750032
-6.4056 57.769000000000005 -34.9811 -15.39316 -42.151832 13.779809 -0.320118 18.298336 -0.127139 9.497715 -10.259894 6.542451 8.685698 21.822117 84.527925 -43.585418 4.771955 -63.81082 10.066548 -0.538271 -6.10584 -8.789459 2.777326 -35.01321 -138.302247 39.736126 136.160853 -101.004886 28.160411 74.691811 177.630357 7.396495 -70.675434 -12.212278 -5.259483 -1.137773 -146.922742 29.888487 104.292999 3.117886 -32.303662 -4.698981 -42.744162 56.5056 39.076315 -168.374179 -76.735643 -175.043894 -23.91962 -47.548853 -40.62272 7.976416 64.065609 21.272367 -11.391347 -8.024315 -13.590459 -101.634333 34.610081 114.901918 18.973513 37.464392 5.569423 -175.710404 12.223391 -154.453007 141.147749 34.120754 -157.936836 48.876893 -0.545348 11.645229 173.510084 -0.340159 106.144569 1.016872 31.813767 7.958666 -173.267527 -25.568386 -95.794949 -66.494345 -69.077147 -89.04981 -25.977474 -30.907843 -28.799006 18.843834 -51.386425 50.581731 149.965905 27.14449 -139.856406 168.017677 -5.365449 -175.817502 115.567125 32.77634 -120.978813 -35.791945 11.157516 -41.913887 157.227615 -24.090962 146.715292 8.817149 69.237133 15.314322 -133.761131 54.957053 -10.656422 119.35928 17.937307 -55.337656 -75.276833 8.764661 -56.566461 -173.224052 17.754006 -108.962697 -94.761484 35.116144 -8.597833 162.256371 -22.141829 141.46194 84.016555 0.571837 9.527484 -158.021356 -15.102921 90.001472
-6.9924 58.2353 -35.713899999999995 -15.675728 -42.747833 14.107608 0.511226 18.27853 0.382431 7.911414 -10.877355 7.137814 9.761393 28.186788 119.482072 -41.369993 29.260488 -89.254179 5.355096 -0.661721 -14.078478 -8.036367 2.151616 -29.933491 -161.595893 -14.166201 157.914329 136.089843 21.590252 172.71979 -139.503267 -49.25026 62.371493 -174.87138 -16.249966 148.923754 -174.663091 -36.21716 114.501117 15.330867 -40.078964 -0.163195 -140.929965 -12.392133 137.147269 38.438044 -47.539709 -56.047087 -12.162084 25.539287 -23.455313 -119.640437 8.299332 108.092161 -10.115339 72.880253 11.908669 -142.13083 58.658506 122.297812 -1.347995 8.006033 -2.045865 -135.64406 57.999272 165.225614 -9.332365 -36.476196 11.815663 -70.078132 -0.271014 -18.412509 9.159576 12.429639 -78.066679 -1.433987 22.906784 5.038165 172.840474 -8.710679 -94.36258 119.737345 -14.098279 -28.557354 129.699718 5.619676 -84.588897 -7.975978 22.763765 -25.262538 167.221083 -34.282629 -159.018839 -7.658219 87.265208 -1.829249 -109.335626 -84.381921 -106.642252 -169.121159 -17.457796 150.163108 63.026097 70.727234 -82.261595 133.256725 -27.254408 -176.732579 6.116149 18.276507 -5.360582 -26.164173 -33.658046 -58.598475 -53.61851 57.545832 -164.494634 -105.690367 -8.764392 -163.765678 41.839141 34.48207 15.332432 -112.952387 -84.158397 -75.006259 39.568698 78.696267 52.793576 -153.83747 -43.487429 95.039322
-7.513 58.3422 -36.4982 -16.087066 -43.586721 14.717866 1.244432 18.017569 1.316958 6.410166 -11.364604 7.493853 -9.706161 30.576241 -105.924444 46.500287 22.645526 115.764646 -2.477673 0.397886 -18.243589 -9.21048 2.059301 -25.156149 -12.47334 27.030908 12.826168 72.318055 -2.220963 20.152427 -52.834098 -21.99311 109.816314 94.905792 -83.422864 81.759462 0.488769 18.477773 -25.541052 12.734157 -52.025615 1.709935 -33.174402 54.309498 21.779099 -74.748949 84.586013 16.536476 -162.212926 -46.951582 -173.268993 -2.953697 -6.919452 -43.089201 -36.290611 -43.129235 -38.786784 44.201111 -13.092578 -1.486975 28.144742 78.38291 -1.989453 166.758678 66.98724 -143.526389 134.399935 44.420352 -145.190014 -138.838078 9.247774 -175.94049 19.731872 10.861448 -77.954434 -4.238945 11.031374 1.564244 177.973384 -17.116014 -92.39754 -71.280053 -44.252558 -74.048728 133.685681 2.835547 -92.382243 127.678182 2.862301 -94.511466 8.325522 -8.002976 16.837167 3.801253 17.111454 -32.642468 52.670407 -85.596056 51.220644 169.908151 -27.087563 139.308028 161.034172 -36.008225 145.540491 58.565619 -1.224127 8.458274 41.872738 16.475794 11.69163 -70.000614 -10.590639 32.813335 61.942376 14.466435 -104.138649 152.154025 -11.876342 8.842945 58.508443 40.266648 22.929702 -109.773425 -67.384084 -11.272482 79.924351 36.657673 8.996249 -13.861111 -48.263088 -108.373565
-7.965800000000001 58.2163 -37.3462 -16.340899 -44.299271 15.173912 2.0505 17.47018 -9.003663 7.284221 -10.033151 18.536549 -10.671187 28.948446 -90.883252 47.082504 12.304126 104.027185 -9.510223 1.5547 -18.528001 -11.078115 2.344508 -23.829721 -156.077649 8.028396 155.594549 -72.176494 33.063334 33.726451 -4.397865 -10.443128 -144.628118 -167.700001 9.855197 145.361298 -2.741958 29.101214 -23.970369 -132.188341 9.848842 79.864931 -140.652606 -75.890243 166.244508 -25.388533 31.506588 63.008486 -172.183958 -27.874406 177.230067 62.932116 75.340091 -89.279485 -164.315474 52.336647 178.689223 174.97243 -27.17936 -174.375488 -159.941198 26.027767 -144.418444 -3.413464 0.040439 -23.163841 154.151793 -31.045563 -165.738052 64.226447 -37.949319 74.537734 171.672556 -4.375694 109.170985 0.624339 26.001792 1.544086 -3.265648 0.611986 3.083637 117.420394 44.713373 -107.595396 -19.122005 -22.501762 -14.100437 169.321299 -44.845723 -137.466031 9.125808 -36.503568 22.235215 -65.982042 -50.756192 -20.722355 90.331497 62.896515 -90.379315 131.766815 -24.289753 -146.23641 80.220788 -71.061735 51.986843 -25.439755 26.554431 55.953527 133.675669 53.924002 30.545924 -174.942272 43.246629 12.513186 31.948345 60.339469 -84.491934 -117.982649 -36.072531 -13.957102 111.792797 55.898836 14.249612 -131.018788 -41.638119 114.260133 89.100684 -59.970388 83.123573 85.850758 29.048474 175.905479
